<svg aria-hidden="true" style="width:0;height:0;position:absolute;overflow:hidden" xmlns="http://www.w3.org/2000/svg"><defs><symbol id="icon-menu_close" viewBox="0 0 32 32"><path d="M23.884 6.706 16 14.59 8.116 6.706a.995.995 0 0 0-1.38.031 1 1 0 0 0-.031 1.38l7.88 7.884-7.882 7.882a1.002 1.002 0 0 0-.018 1.427.998.998 0 0 0 1.427-.015l7.886-7.882 7.884 7.884a1 1 0 0 0 1.38-.03 1 1 0 0 0 .03-1.38l-7.884-7.884 7.884-7.886a1.002 1.002 0 0 0 .018-1.427.998.998 0 0 0-1.427.015v.002z"/></symbol><symbol id="icon-menu_open" viewBox="0 0 32 32"><path d="M6.4 11.734V9.6h19.2v2.134H6.4zm0 5.332h19.2v-2.133H6.4v2.133zm0 5.334h19.2v-2.134H6.4V22.4z"/></symbol><symbol id="icon-arrow-d" viewBox="0 0 82 32"><path d="M81.414 17.414a2 2 0 0 0 0-2.828L68.686 1.858a2 2 0 1 0-2.828 2.828L77.172 16 65.858 27.314a2 2 0 1 0 2.828 2.828l12.728-12.728zM0 18h80v-4H0v4z"/></symbol><symbol id="icon-arrow-f" viewBox="0 0 69 32"><path d="M68.081 17.414a2 2 0 0 0 0-2.829L55.353 1.857a2 2 0 1 0-2.828 2.828l11.314 11.314-11.314 11.314a2 2 0 1 0 2.828 2.828l12.728-12.728zM0 18h66.667v-4H0v4z"/></symbol><symbol id="icon-arrow-h" viewBox="0 0 102 32"><path d="M101.414 17.414a2 2 0 0 0 0-2.828L88.686 1.858a2 2 0 1 0-2.828 2.828L97.172 16 85.858 27.314a2 2 0 1 0 2.828 2.828l12.728-12.728zM0 18h100v-4H0v4z"/></symbol><symbol id="icon-Vector-1" viewBox="0 0 22 32"><path stroke-linejoin="round" stroke-linecap="round" stroke-width="6.4" d="M3.2 3.2 19.04 16 3.2 28.8"/><symbol id="icon-vektra" viewBox="0 0 22 32"><path d="M2.862.019A3.202 3.202 0 0 0 .717 1.182l-.005.006A3.183 3.183 0 0 0 0 3.2c0 1.002.46 1.896 1.181 2.483l.006.005 12.762 10.313L1.187 26.314a3.196 3.196 0 0 0-.47 4.506l-.005-.006a3.196 3.196 0 0 0 4.506.47l-.006.005 15.831-12.8a3.2 3.2 0 0 0 .006-4.971l-.006-.005L5.212.713A3.183 3.183 0 0 0 2.848.02l.014-.001z"/></symbol><symbol id="icon-cow" viewBox="0 0 32 32"><path d="M6.169.192c-.262.226-1.008 1.781-1.276 2.631-.318 1.052-.427 1.84-.384 2.93.058 1.556.449 2.736 1.31 3.968.225.324.406.601.406.624 0 .015-.138.03-.311.03-.747 0-2.144.248-3.215.571-1.7.512-2.7 1.405-2.7 2.405 0 .354.318.955.659 1.262.659.595 2.1 1.158 3.649 1.428.536.098 2.129.263 2.484.27.065 0 .087.347.087 1.481 0 .977.036 1.736.108 2.202.26 1.668 1.071 3.434 2.142 4.682l.37.428-.246.398c-.362.564-.5.992-.542 1.63-.109 1.533.846 2.893 2.693 3.848 3.517 1.826 8.984 1.112 11.033-1.443.999-1.248 1.115-2.676.325-3.968l-.246-.398.442-.533c.826-.992 1.361-1.984 1.766-3.239.34-1.067.471-2.097.471-3.728 0-.743.021-1.36.058-1.36.333-.007 1.933-.18 2.44-.27 1.556-.27 2.969-.827 3.649-1.428.34-.308.659-.909.659-1.262 0-1.113-1.129-2.014-3.229-2.556-.687-.18-1.983-.398-2.613-.436l-.297-.023.326-.451c.405-.548.912-1.616 1.108-2.315.55-2.021.21-4.373-.97-6.62-.493-.932-.834-1.15-1.231-.783-.152.144-.218.339-.362 1.045-.449 2.247-1.282 4.028-2.498 5.342l-.536.587H10.245l-.478-.518C8.58 5.315 7.718 3.467 7.269 1.212 7.124.505 7.059.311 6.907.168c-.239-.218-.471-.211-.738.022zm.925 4.457c.384.841.862 1.63 1.426 2.359l.449.579-.47.353c-.442.338-.854.82-1.173 1.369l-.137.247-.348-.474c-1.188-1.637-1.484-3.644-.854-5.726.304-1.006.297-.999.572-.127.131.42.377 1.06.536 1.42zm18.845-1.586c.262.728.414 1.569.414 2.444l-.001.093v-.005c0 1.367-.362 2.524-1.122 3.562l-.34.466-.253-.428a4.534 4.534 0 0 0-1.254-1.381l-.013-.009c-.196-.127-.347-.255-.347-.27 0-.022.137-.196.311-.383.804-.894 1.665-2.502 2.092-3.885.13-.428.26-.782.282-.782s.131.264.231.58zM22.24 8.556c.804.338 1.571 1.307 1.694 2.126.065.451.217.737.412.782.087.014.688.067 1.332.112 2.287.151 4.09.639 4.858 1.308.355.316.318.579-.108.902-.854.646-2.7 1.134-4.583 1.218-1.245.052-1.506.089-1.673.262-.123.128-.137.263-.137 1.623 0 1.842-.094 2.901-.326 3.757-.325 1.164-.97 2.405-1.723 3.284l-.311.361-.644-.384a7.832 7.832 0 0 0-2.335-.958l-.054-.011c-2.744-.654-5.778-.256-7.819 1.029l-.471.3-.297-.353c-.405-.474-1.043-1.488-1.296-2.059-.557-1.293-.724-2.345-.724-4.66 0-2.247.116-2.082-1.549-2.172-2.129-.113-3.751-.496-4.772-1.142-.753-.481-.629-.909.42-1.413 1.006-.489 2.388-.781 4.308-.901 1.492-.098 1.527-.121 1.665-.842.203-1.09 1.006-1.991 2.02-2.277.253-.075 1.672-.09 6.016-.083l5.684.015.412.173zm-4.069 15.556c1.774.436 3.099 1.247 3.671 2.254.138.233.196.474.224.842.029.458.008.571-.166.947-.804 1.707-3.757 2.833-6.762 2.578-3.612-.3-5.988-2.315-5.053-4.291.507-1.068 2.222-2.089 4.032-2.39.297-.044.594-.098.652-.113s.71-.015 1.449 0c1.005.023 1.491.068 1.954.173z"/><path d="M10.99 12.321c-.45.151-.754.347-1.159.752-.355.338-.383.736-.086.977.276.225.535.196.868-.098.42-.368.746-.518 1.151-.518.405-.008.716.135 1.151.518.333.293.594.323.868.098.145-.12.188-.218.188-.444 0-.232-.051-.338-.304-.593-.716-.721-1.781-.999-2.679-.692zm8.441-.008c-.462.173-1.057.564-1.295.857-.232.286-.24.609 0 .85.238.255.528.24.876-.045.854-.707 1.492-.729 2.281-.076.203.173.434.308.507.308.355 0 .644-.316.644-.692 0-.24-.601-.796-1.144-1.06-.601-.293-1.317-.346-1.868-.142zM12.04 26.224c-.21.203-.283.496-.174.729.08.187.203.263.702.398.225.06.319.135.398.323.101.249.109.249.667.271l.557.022v-.211c-.007-.3-.174-.736-.391-1.036-.253-.347-.695-.572-1.195-.617-.34-.03-.427-.015-.564.121zm6.914-.053c-.362.098-.884.587-1.028.969a2.533 2.533 0 0 0-.137.677v.008c-.015.323.014.398.188.556.427.376.992.083.992-.518 0-.293.217-.496.601-.571.405-.076.551-.241.557-.624 0-.504-.449-.699-1.173-.496z"/></symbol><symbol id="icon-weight" viewBox="0 0 32 32"><path d="M14.178.547c-3.974.589-7.247 2.796-8.452 5.685-.384.913-.487 1.474-.487 2.573.007.812.036 1.114.163 1.552.258.862.443 1.301.827 1.92l.356.574-.4.489c-3.154 3.924-3.501 9.444-.871 13.793.982 1.632 2.586 3.235 4.151 4.169l.466.273 12.743-.108.302-.165c1.057-.596 2.548-1.926 3.383-3.004a12.51 12.51 0 0 0 2.413-5.546l.01-.074c.118-.74.118-2.933-.007-3.63-.377-2.148-1.182-3.988-2.452-5.62-.244-.309-.436-.568-.436-.589 0-.014.133-.237.288-.489a7.623 7.623 0 0 0 .85-1.907l.014-.055c.199-.719.199-2.516 0-3.235-.709-2.551-2.836-4.679-5.843-5.851-.843-.331-2.284-.683-3.214-.797-.864-.1-2.999-.08-3.804.043zm4.498 1.171c3.945.769 6.834 3.184 7.365 6.16.118.668.044 1.804-.155 2.436-.2.618-.569 1.344-1.004 1.963-.178.252-.325.539-.325.632s.155.338.377.582c1.846 2.049 2.821 4.614 2.821 7.388-.007 3.156-1.219 5.923-3.553 8.093-.399.373-.968.841-1.271 1.042l-.554.373-12.211.051-.473-.302c-1.714-1.113-3.258-2.953-4.115-4.908-1.078-2.472-1.189-5.34-.31-7.913.466-1.337 1.086-2.429 2.031-3.58.385-.46.562-.733.562-.862 0-.108-.192-.46-.444-.827-.886-1.287-1.248-2.717-1.034-4.068.222-1.365.842-2.487 1.987-3.6 1.493-1.445 3.576-2.402 6.021-2.761 1.012-.151 3.25-.093 4.284.1z"/><path d="M14.509 2.983c-3.029.496-5.4 2.178-6.176 4.385-.178.496-.206.69-.206 1.402s.029.905.206 1.401c.111.316.318.756.459.978.384.618.554.64 1.315.18a11.719 11.719 0 0 1 3.727-1.474l.078-.014c.916-.187 2.674-.258 3.671-.143 1.558.18 3.251.74 4.602 1.538.385.222.776.409.872.409.562 0 1.278-1.617 1.278-2.874 0-2.796-2.675-5.19-6.464-5.787-.805-.129-2.586-.129-3.361 0zm3.656 1.15c1.271.273 2.438.791 3.317 1.474 1.182.913 1.817 2.185 1.714 3.413-.037.489-.222 1.15-.332 1.222-.029.014-.444-.158-.916-.388a14.138 14.138 0 0 0-3.131-1.081l-.097-.018c-.687-.143-.975-.165-2.512-.158-1.514 0-1.831.022-2.489.158a13.26 13.26 0 0 0-3.195 1.099l.078-.035c-1.101.524-1.042.532-1.242-.116-.258-.84-.096-1.955.407-2.796.266-.445.996-1.186 1.529-1.552 1.012-.698 1.899-1.013 3.804-1.359.391-.071 2.563.029 3.065.137zm-1.202 9.271c-.207.26-.207.504.007.712.14.137.281.172.791.209a6.489 6.489 0 0 1 2.815.865l-.031-.017c.606.359 1.529 1.229 1.943 1.854.613.898 1.034 2.185 1.034 3.134 0 .331.03.431.185.574.236.237.547.237.776 0 .163-.165.169-.208.125-.912-.207-3.479-3.184-6.382-6.744-6.578l-.74-.043-.162.202z"/></symbol><symbol id="icon-ice-crema" viewBox="0 0 16 32"><path d="M8.108.107c.08.214.241 1.252.241 1.573 0 .797-.295 1.54-.837 2.122-.449.482-.897.75-1.975 1.185-1.198.489-1.694.783-2.256 1.339-.569.569-.904 1.192-1.024 1.921-.134.797 0 1.359.408 1.68l.208.161-.328.208C1.882 10.731.677 11.755.47 12.07c-.402.603-.361 1.165.094 1.392l.214.107-.241.228c-.361.341-.435.576-.382 1.192.033.408.02.629-.074.964-.114.435-.114.442.033.75.147.301.562.683.937.843.181.08.187.107.228.723.02.355.054 1.486.08 2.517.02 1.031.067 1.975.107 2.089a.79.79 0 0 0 .274.361c.388.268.656.556.83.89.194.382.408 1.319 1.058 4.559l.455 2.276.281.268c.536.529 1.56.77 3.247.77 1.694 0 2.705-.234 3.24-.763l.288-.274.415-2.109c.917-4.613.997-4.867 1.714-5.436.221-.181.435-.402.475-.502.047-.114.094-.991.127-2.316.027-1.178.067-2.343.094-2.591l.04-.449.435-.328c.549-.422.763-.803.763-1.393-.007-.696-.462-1.459-1.292-2.142l-.395-.321.194-.274c.81-1.118.301-2.664-1.205-3.695l-.455-.315.167-.174c.743-.797.864-3.173.241-4.827-.375-.984-1.232-2.055-2.283-2.845C9.659.857 8.239 0 8.112 0c-.027 0-.027.047-.007.107zm1.928 2.336c.355.348.783.823.951 1.064.998 1.392 1.252 3.14.649 4.425-.241.522-.964 1.299-1.633 1.761-1.024.71-3.327 1.901-4.934 2.557-2.584 1.051-4.084 1.252-4.258.562-.067-.261.127-.469.951-1.018.743-.509 4.077-2.986 4.137-3.086.02-.027-.321.127-.75.341-1.453.736-2.142.596-2.109-.428.02-.743.556-1.587 1.299-2.069.187-.12.77-.388 1.305-.603 1.761-.71 2.296-1.071 2.892-1.962.355-.529.743-1.506.77-1.921.007-.147.034-.261.054-.261s.321.288.676.636zm1.828 7.606c.489.274.998.743 1.218 1.111.388.663.187 1.325-.649 2.169-.911.924-2.464 1.808-4.171 2.37-1.573.515-3.079.756-5.235.83l-1.339.047.87.053c1.125.074 3.3.007 4.144-.127 2.243-.355 4.151-1.064 5.516-2.042.308-.221.629-.402.716-.402.221 0 1.185.924 1.379 1.312.107.221.134.382.114.596-.1.89-1.185 1.366-3.803 1.68-3.2.382-7.384.007-9.172-.817-.844-.388-.984-.609-.77-1.198.067-.187.08-.408.054-.723-.033-.415-.027-.469.12-.623.335-.361.897-.569 2.959-1.091a28.11 28.11 0 0 0 2.176-.656c1.138-.415 3.274-1.493 4.264-2.156.931-.616 1.064-.643 1.607-.335zm-8.89 8.194c1.406.408 2.651.529 4.967.482 1.741-.034 2.812-.141 4.358-.415.315-.053.589-.1.623-.1.074 0 .053 2.571-.027 3.247-.087.716-.281 1.272-.489 1.406-.214.141-1.285.288-2.718.368-2.939.161-5.958 0-6.895-.375-.509-.207-.562-.475-.569-2.959 0-1.654.013-1.881.1-1.848.054.02.348.107.649.194zm1.586 5.69c.482.06 1.004.121 1.165.141l.288.034-.254.281c-.328.355-.83 1.064-1.011 1.426-.208.415-.274.442-.582.274l-.261-.147-.147-.91c-.08-.495-.167-.971-.187-1.051-.06-.174-.12-.174.991-.047zm7.137-.074c0 .013-.033.187-.067.382-.04.201-.208 1.292-.375 2.43-.341 2.377-.569 3.495-.777 3.869-.288.502-.977.797-2.095.89-.435.034-1.747-.053-1.821-.12-.054-.06 1.098-1.486 1.279-1.58.167-.094.214-.08.783.214.663.348.998.402.998.181s-.174-.435-.603-.73c-.395-.281-.536-.442-.536-.629 0-.053.194-.355.428-.669s.576-.817.75-1.118l.328-.542.301.04c.609.087.77.08.75-.053-.013-.067-.127-.261-.254-.422-.127-.167-.228-.335-.228-.368 0-.127.623-1.299.823-1.546.174-.214.315-.321.315-.228zm-4.184.536c.335.221 1.593 1.312 1.674 1.446.034.06-1.259 2.082-1.513 2.37-.027.034-.167-.033-.308-.141a22.133 22.133 0 0 0-1.165-.803l-.904-.596.542-.917c.964-1.613.944-1.587 1.151-1.587.107 0 .341.1.522.228zm2.537.241c-.234.288-.428.469-.509.469-.174 0-.455-.154-.931-.502l-.395-.288.79-.047c.428-.02.844-.047.917-.06.536-.087.536-.08.127.428zm-5.061 3.22c.616.241 1.66.81 1.962 1.064.214.174.214.187.127.402a6.675 6.675 0 0 1-.415.716c-.174.268-.375.602-.449.743-.214.415-.281.449-.723.328-.475-.141-.73-.382-.864-.817-.181-.609-.469-2.33-.435-2.598.013-.1.295-.04.797.161z"/></symbol><symbol id="icon-facebook" viewBox="0 0 16 32"><path d="M14.143 15.971H10.11v14.865H3.998V15.971H1.092v-5.222h2.906V7.367c0-2.417 1.142-6.204 6.167-6.204l4.527.019v5.072h-3.284c-.538 0-1.297.272-1.297 1.425v3.073h4.567l-.534 5.219z"/></symbol><symbol id="icon-github" viewBox="0 0 32 32"><path d="M16 0C7.211 0 0 7.211 0 16c0 7.499 5.262 14.312 12.25 16v-5.293a3.921 3.921 0 0 1-2.062-.06l.028.007c-.946-.278-1.714-.909-2.285-1.869-.363-.613-1.008-1.28-1.68-1.23l-.165-1.867c1.454-.125 2.71.886 3.456 2.139.333.558.715.885 1.205 1.029.472.141.981.074 1.573-.136.149-1.186.693-1.629 1.104-2.256-4.168-.621-5.829-2.832-6.488-4.576-.874-2.318-.405-5.213 1.139-7.043.03-.035.085-.128.064-.192-.709-2.141.154-3.91.186-4.098.818.24.95-.243 3.552 1.336l.448.27c.189.112.128.048.317.032a13.246 13.246 0 0 1 3.349-.469h.01c1.136.014 2.272.176 3.403.483l.146.016c-.013-.003.04-.01.128-.062 3.248-1.968 3.131-1.325 4.003-1.608.032.189.882 1.987.182 4.099-.096.291 2.816 2.957 1.202 7.235-.659 1.744-2.32 3.957-6.486 4.578.534.816 1.176 1.248 1.173 2.928v6.606c6.986-1.688 12.25-8.501 12.25-16 0-8.789-7.211-16-16-16z"/></symbol><symbol id="icon-telegram" viewBox="0 0 44 32"><path d="m17.346 21.048-.676 8.86c.966 0 1.384-.388 1.886-.852l4.528-4.04 9.38 6.414c1.72.894 2.932.422 3.396-1.478L42.02 3.02C42.566.648 41.1-.28 39.424.3L3.23 13.234C.76 14.13.798 15.414 2.81 16l9.254 2.686L33.558 6.134c1.01-.626 1.93-.28 1.174.346L17.346 21.05z"/></symbol><symbol id="icon-Ellipse-9" viewBox="0 0 32 32"><path d="M32 16c0 8.837-7.163 16-16 16S0 24.837 0 16 7.163 0 16 0s16 7.163 16 16z"/></symbol><symbol id="icon-frame-57" viewBox="0 0 82 32"><path d="M81.414 17.414a2 2 0 0 0 0-2.828L68.686 1.858a2 2 0 1 0-2.828 2.828L77.172 16 65.858 27.314a2 2 0 1 0 2.828 2.828l12.728-12.728zM0 18h80v-4H0v4z"/></symbol><symbol id="icon-up-arrow-svgrepo-com" viewBox="0 0 32 32"><path d="M26.783 30.025c-6.297 0-16.915-1.855-18.02-14.153H0L13.896 1.976l13.896 13.896H18.67c-.184 1.375-.451 5.354 2.013 8.414 2.178 2.703 5.945 4.073 11.197 4.073l.119 1.244c-.09.015-2.231.422-5.217.422zM3.027 14.617h6.905l.038.588c.667 10.497 8.443 13.231 15.404 13.537-2.409-.749-4.306-1.979-5.673-3.679-3.387-4.215-2.223-9.72-2.173-9.952l.109-.493h7.128L13.897 3.75 3.027 14.618z"/></symbol></symbol></defs></svg>